# xmcd
#
# Track frame offsets:
#	150
#	4940
#	23540
#	46601
#	97296
#	137641
#	167549
#	192634
#	219067
#	270242
#	274536
#	317426
#
# Disc length: 4796 seconds
#
# Revision: 0
# Processed by: cddbd v1.5.2PL0 Copyright (c) Steve Scherf et al.
# Submitted via: audiograbber 1.83.01
#
DISCID=9312ba0c
DTITLE=Grateful Dead - 93-09-14 The Spectrum, Philadelphia PA
DYEAR=1900
DGENRE=
TTITLE0=Tuning
TTITLE1=Help On The Way
TTITLE2=Slipknot!
TTITLE3=Franklin's Tower
TTITLE4=New Minglewood Blues
TTITLE5=Broken Arrow
TTITLE6=Brown Eyed Women
TTITLE7=When I Paint My Masterpiece
TTITLE8=Bird Song
TTITLE9=Tuning
TTITLE10=Iko Iko
TTITLE11=Looks Like Rain
EXTD=
EXTT0=
EXTT1=
EXTT2=
EXTT3=
EXTT4=
EXTT5=
EXTT6=
EXTT7=
EXTT8=
EXTT9=
EXTT10=
EXTT11=
PLAYORDER=
